<svg width="33" height="23" viewBox="0 0 33 23" fill="none" xmlns="http://www.w3.org/2000/svg">
<path id="Vector" d="M2.27116 6.75872H24.9828C26.2319 6.75872 27.254 7.51908 27.254 8.4484C27.254 9.37773 26.2319 10.1381 24.9828 10.1381H2.27116C1.02202 10.1381 0 9.37773 0 8.4484C0 7.51908 1.02202 6.75872 2.27116 6.75872ZM2.27116 0H24.9828C26.2319 0 27.254 0.760356 27.254 1.68968C27.254 2.61901 26.2319 3.37936 24.9828 3.37936H2.27116C1.02202 3.37936 0 2.61901 0 1.68968C0 0.760356 1.02202 0 2.27116 0ZM2.27116 13.5174H15.8981C17.1473 13.5174 18.1693 14.2778 18.1693 15.2071C18.1693 16.1364 17.1473 16.8968 15.8981 16.8968H2.27116C1.02202 16.8968 0 16.1364 0 15.2071C0 14.2778 1.02202 13.5174 2.27116 13.5174ZM22.7116 15.0044V22.1517C22.7116 22.8107 23.6655 23.2162 24.4377 22.8783L32.4549 19.2962C33.1817 18.9751 33.1817 18.181 32.4549 17.843L24.4377 14.2609C24.2624 14.1864 24.0639 14.1474 23.8621 14.1479C23.6602 14.1483 23.462 14.1881 23.2873 14.2634C23.1126 14.3386 22.9675 14.4466 22.8665 14.5767C22.7655 14.7067 22.7121 14.8542 22.7116 15.0044Z" fill="white"/>
</svg>
