<svg width="32" height="28" viewBox="0 0 32 28" fill="none" xmlns="http://www.w3.org/2000/svg">
<g id="Group">
<path id="Vector" d="M25 6.20001V12.5089C25 12.8859 25 13.0744 24.8575 13.1511C24.715 13.2265 24.5215 13.142 24.1315 12.9743L22.2685 12.1657C22.1365 12.1098 22.0705 12.0812 22 12.0812C21.9295 12.0812 21.8635 12.1098 21.7315 12.1657L19.8685 12.9743C19.4785 13.1433 19.2835 13.2265 19.1425 13.1511C19 13.0731 19 12.8859 19 12.5089V6.20001" stroke="white" stroke-width="1.5"/>
<path id="Vector_2" d="M1 7.435C1 6.2871 1 5.7138 1.105 5.2354C1.32884 4.20819 1.90471 3.2633 2.75748 2.524C3.61025 1.7847 4.70033 1.28531 5.8855 1.091C6.439 1 7.102 1 8.425 1C9.004 1 9.295 1 9.574 1.0221C10.7756 1.1199 11.9152 1.52946 12.844 2.1973C13.06 2.352 13.264 2.5288 13.675 2.885L14.5 3.6C15.724 4.6608 16.336 5.1912 17.068 5.5435C17.4703 5.73784 17.8971 5.89139 18.34 6.0011C19.147 6.2 20.0125 6.2 21.742 6.2H22.303C26.251 6.2 28.2265 6.2 29.509 7.201C29.6275 7.292 29.74 7.3895 29.845 7.4922C31 8.6037 31 10.3158 31 13.7374V16.6C31 21.5023 31 23.9541 29.242 25.4764C27.4855 27 24.6565 27 19 27H13C7.3435 27 4.5145 27 2.758 25.4764C1 23.9541 1 21.5023 1 16.6V7.435Z" stroke="white" stroke-width="1.5"/>
</g>
</svg>
