<svg width="25" height="25" viewBox="0 0 25 25" fill="none" xmlns="http://www.w3.org/2000/svg">
<path id="Vector" d="M2.5 12.9167H6.25C6.91304 12.9167 7.54893 13.1888 8.01777 13.6733C8.48661 14.1578 8.75 14.8149 8.75 15.5V21.9583C8.75 22.6435 8.48661 23.3006 8.01777 23.785C7.54893 24.2695 6.91304 24.5417 6.25 24.5417H2.5C1.83696 24.5417 1.20107 24.2695 0.732233 23.785C0.263392 23.3006 0 22.6435 0 21.9583V12.9167C0 5.78279 5.59625 0 12.5 0C19.4037 0 25 5.78279 25 12.9167V21.9583C25 22.6435 24.7366 23.3006 24.2678 23.785C23.7989 24.2695 23.163 24.5417 22.5 24.5417H18.75C18.087 24.5417 17.4511 24.2695 16.9822 23.785C16.5134 23.3006 16.25 22.6435 16.25 21.9583V15.5C16.25 14.8149 16.5134 14.1578 16.9822 13.6733C17.4511 13.1888 18.087 12.9167 18.75 12.9167H22.5C22.5 10.1761 21.4464 7.54777 19.5711 5.6099C17.6957 3.67202 15.1522 2.58333 12.5 2.58333C9.84783 2.58333 7.3043 3.67202 5.42893 5.6099C3.55357 7.54777 2.5 10.1761 2.5 12.9167Z" fill="white"/>
</svg>
