<svg width="28" height="26" viewBox="0 0 28 26" fill="none" xmlns="http://www.w3.org/2000/svg">
<g id="Group">
<path id="Vector" d="M14 16.6C15.0344 16.6 16.0263 16.2207 16.7577 15.5456C17.4891 14.8705 17.9 13.9548 17.9 13C17.9 12.0452 17.4891 11.1296 16.7577 10.4544C16.0263 9.77931 15.0344 9.40002 14 9.40002C12.9657 9.40002 11.9737 9.77931 11.2423 10.4544C10.5109 11.1296 10.1 12.0452 10.1 13C10.1 13.9548 10.5109 14.8705 11.2423 15.5456C11.9737 16.2207 12.9657 16.6 14 16.6Z" stroke="white" stroke-width="1.5" stroke-linecap="round" stroke-linejoin="round"/>
<path id="Vector_2" d="M23.9086 11.074L22.4825 7.894L24.4 5.8L21.8 3.4L19.5445 5.1796L16.0254 3.844L15.2155 1H12.6753L11.8537 3.8812L8.4152 5.2192L6.2 3.4L3.6 5.8L5.4889 7.9468L4.0849 11.1352L1 11.8V14.2L4.1213 14.986L5.5708 18.16L3.6 20.2L6.2 22.6L8.5283 20.848L11.9161 22.1344L12.7 25H15.3L16.0852 22.1356L19.5315 20.818C20.1061 21.1972 21.8 22.6 21.8 22.6L24.4 20.2L22.4708 18.1L23.8982 14.9176L27 14.1736V11.8L23.9086 11.074Z" stroke="white" stroke-width="1.5" stroke-linecap="round" stroke-linejoin="round"/>
</g>
</svg>
