<svg width="32" height="32" viewBox="0 0 32 32" fill="none" xmlns="http://www.w3.org/2000/svg">
<g id="carbon:share">
<path id="Vector" d="M23 20C22.2515 20.0038 21.5134 20.1755 20.8401 20.5027C20.1668 20.8298 19.5756 21.3039 19.11 21.89L11.8 17.32C12.0664 16.4602 12.0664 15.5398 11.8 14.68L19.11 10.11C19.8519 11.0287 20.8951 11.6552 22.0547 11.8784C23.2143 12.1016 24.4155 11.9072 25.4455 11.3296C26.4755 10.752 27.2678 9.8285 27.6821 8.72265C28.0964 7.61681 28.1059 6.40002 27.709 5.28784C27.312 4.17566 26.5342 3.23987 25.5134 2.64624C24.4925 2.05261 23.2945 1.83946 22.1316 2.04454C20.9686 2.24963 19.9158 2.85971 19.1596 3.76673C18.4033 4.67374 17.9926 5.81913 18 7.00001C18.0047 7.44718 18.072 7.8915 18.2 8.32001L10.89 12.89C10.2446 12.0776 9.36254 11.4861 8.36595 11.1974C7.36937 10.9087 6.30766 10.9373 5.32801 11.279C4.34836 11.6208 3.49929 12.2588 2.89849 13.1047C2.29769 13.9506 1.97491 14.9625 1.97491 16C1.97491 17.0376 2.29769 18.0494 2.89849 18.8953C3.49929 19.7412 4.34836 20.3792 5.32801 20.721C6.30766 21.0627 7.36937 21.0913 8.36595 20.8026C9.36254 20.514 10.2446 19.9224 10.89 19.11L18.2 23.68C18.072 24.1085 18.0047 24.5528 18 25C18 25.9889 18.2932 26.9556 18.8427 27.7779C19.3921 28.6001 20.173 29.241 21.0866 29.6194C22.0002 29.9978 23.0055 30.0969 23.9755 29.9039C24.9454 29.711 25.8363 29.2348 26.5355 28.5355C27.2348 27.8363 27.711 26.9454 27.9039 25.9755C28.0969 25.0056 27.9978 24.0002 27.6194 23.0866C27.241 22.173 26.6001 21.3921 25.7779 20.8427C24.9556 20.2932 23.9889 20 23 20ZM23 4.00001C23.5933 4.00001 24.1734 4.17595 24.6667 4.5056C25.1601 4.83524 25.5446 5.30378 25.7716 5.85196C25.9987 6.40013 26.0581 7.00333 25.9424 7.58528C25.8266 8.16722 25.5409 8.70177 25.1213 9.12133C24.7018 9.54088 24.1672 9.82661 23.5853 9.94236C23.0033 10.0581 22.4001 9.99871 21.8519 9.77164C21.3038 9.54458 20.8352 9.16006 20.5056 8.66672C20.1759 8.17337 20 7.59335 20 7.00001C20 6.20436 20.3161 5.44129 20.8787 4.87869C21.4413 4.31608 22.2044 4.00001 23 4.00001ZM7 19C6.40666 19 5.82664 18.8241 5.33329 18.4944C4.83994 18.1648 4.45543 17.6962 4.22836 17.1481C4.0013 16.5999 3.94189 15.9967 4.05765 15.4147C4.1734 14.8328 4.45912 14.2982 4.87868 13.8787C5.29824 13.4591 5.83279 13.1734 6.41473 13.0576C6.99667 12.9419 7.59987 13.0013 8.14805 13.2284C8.69623 13.4554 9.16477 13.8399 9.49441 14.3333C9.82405 14.8266 10 15.4067 10 16C10 16.7957 9.68393 17.5587 9.12132 18.1213C8.55871 18.6839 7.79565 19 7 19ZM23 28C22.4067 28 21.8266 27.8241 21.3333 27.4944C20.8399 27.1648 20.4554 26.6962 20.2284 26.1481C20.0013 25.5999 19.9419 24.9967 20.0576 24.4147C20.1734 23.8328 20.4591 23.2982 20.8787 22.8787C21.2982 22.4591 21.8328 22.1734 22.4147 22.0576C22.9967 21.9419 23.5999 22.0013 24.1481 22.2284C24.6962 22.4554 25.1648 22.8399 25.4944 23.3333C25.8241 23.8266 26 24.4067 26 25C26 25.7957 25.6839 26.5587 25.1213 27.1213C24.5587 27.6839 23.7956 28 23 28Z" fill="black"/>
</g>
</svg>
