<svg width="36" height="43" viewBox="0 0 36 43" fill="none" xmlns="http://www.w3.org/2000/svg">
<g id="carbon:delete">
<path id="Vector" d="M13.5 16.125H15.75V32.25H13.5V16.125ZM20.25 16.125H22.5V32.25H20.25V16.125Z" fill="black"/>
<path id="Vector_2" d="M4.5 8.0625V10.75H6.75V37.625C6.75 38.3378 6.98705 39.0213 7.40901 39.5253C7.83097 40.0294 8.40326 40.3125 9 40.3125H27C27.5967 40.3125 28.169 40.0294 28.591 39.5253C29.0129 39.0213 29.25 38.3378 29.25 37.625V10.75H31.5V8.0625H4.5ZM9 37.625V10.75H27V37.625H9ZM13.5 2.6875H22.5V5.375H13.5V2.6875Z" fill="black"/>
</g>
</svg>
