<svg width="42" height="38" viewBox="0 0 42 38" fill="none" xmlns="http://www.w3.org/2000/svg">
<g id="basil:add-outline">
<path id="Vector" d="M12.2623 19C12.2623 18.6851 12.4005 18.383 12.6467 18.1603C12.8928 17.9376 13.2267 17.8125 13.5748 17.8125H19.6875V12.2819C19.6875 11.967 19.8258 11.6649 20.0719 11.4422C20.3181 11.2195 20.6519 11.0944 21 11.0944C21.3481 11.0944 21.682 11.2195 21.9281 11.4422C22.1742 11.6649 22.3125 11.967 22.3125 12.2819V17.8125H28.4253C28.7734 17.8125 29.1072 17.9376 29.3533 18.1603C29.5995 18.383 29.7378 18.6851 29.7378 19C29.7378 19.3149 29.5995 19.617 29.3533 19.8397C29.1072 20.0624 28.7734 20.1875 28.4253 20.1875H22.3125V25.7181C22.3125 26.033 22.1742 26.3351 21.9281 26.5578C21.682 26.7805 21.3481 26.9056 21 26.9056C20.6519 26.9056 20.3181 26.7805 20.0719 26.5578C19.8258 26.3351 19.6875 26.033 19.6875 25.7181V20.1875H13.5748C13.2267 20.1875 12.8928 20.0624 12.6467 19.8397C12.4005 19.617 12.2623 19.3149 12.2623 19Z" fill="black"/>
<path id="Vector_2" fill-rule="evenodd" clip-rule="evenodd" d="M12.8048 5.96758C18.2516 5.42127 23.7485 5.42127 29.1953 5.96758C32.3925 6.29058 34.9738 8.569 35.3483 11.4776C35.9958 16.4762 35.9958 21.5254 35.3483 26.524C34.972 29.4326 32.3908 31.7094 29.1953 32.034C23.7485 32.5803 18.2516 32.5803 12.8048 32.034C9.60753 31.7094 7.02628 29.4326 6.65178 26.524C6.00564 21.5256 6.00564 16.476 6.65178 11.4776C7.02628 8.569 9.60928 6.29058 12.8048 5.96758ZM28.9048 8.32675C23.651 7.79987 18.349 7.79987 13.0953 8.32675C12.1227 8.42437 11.2149 8.8158 10.5185 9.4378C9.82218 10.0598 9.37791 10.876 9.25753 11.7547C8.63514 16.5695 8.63514 21.4336 9.25753 26.2485C9.37828 27.1268 9.8227 27.9427 10.519 28.5644C11.2154 29.1861 12.123 29.5773 13.0953 29.6748C18.305 30.2005 23.695 30.2005 28.9048 29.6748C29.8768 29.577 30.784 29.1856 31.48 28.5639C32.1759 27.9423 32.6201 27.1266 32.7408 26.2485C33.3632 21.4336 33.3632 16.5695 32.7408 11.7547C32.6197 10.8769 32.1754 10.0615 31.4795 9.44019C30.7835 8.81885 29.8765 8.42773 28.9048 8.32992V8.32675Z" fill="black"/>
</g>
</svg>
