<svg width="65" height="53" viewBox="0 0 65 53" fill="none" xmlns="http://www.w3.org/2000/svg">
<g id="mingcute:folder-open-fill" clip-path="url(#clip0_1_28)">
<g id="Group">
<path id="Vector" d="M57.7633 22.0833C57.9556 22.0833 58.1456 22.1167 58.3208 22.1812C58.496 22.2458 58.6523 22.34 58.7794 22.4576C58.9065 22.5752 59.0014 22.7135 59.0578 22.8634C59.1142 23.0132 59.1309 23.1711 59.1067 23.3266L59.0606 23.5033L51.2335 44.8005C51.082 45.2129 50.7859 45.5802 50.3817 45.8572C49.9775 46.1341 49.4829 46.3088 48.9585 46.3595L48.6417 46.375H10.8333C9.77551 46.377 8.74036 46.1251 7.85688 45.6507C7.78268 45.4856 7.75852 45.3083 7.78646 45.1339L7.83251 44.9528L15.6704 23.6579C15.8218 23.2458 16.1175 22.8787 16.5211 22.6017C16.9248 22.3248 17.4189 22.15 17.9427 22.0988L18.265 22.0833H57.7633ZM25.7833 6.625C26.5132 6.62467 27.2356 6.7446 27.9072 6.97761C28.5788 7.21061 29.1857 7.55188 29.6915 7.98092L30.0165 8.28346L33.8 12.1458H51.4583C52.8249 12.1455 54.1411 12.5663 55.1432 13.324C56.1452 14.0816 56.759 15.1201 56.8615 16.2313L56.875 16.5625V17.6667H18.265C16.6044 17.6667 14.9837 18.0815 13.6211 18.8554C12.2585 19.6292 11.2194 20.725 10.6438 21.995L10.4813 22.3881L5.41667 36.1504V11.0417C5.41624 9.92739 5.93236 8.85417 6.86156 8.03712C7.79076 7.22008 9.06438 6.71961 10.4271 6.63604L10.8333 6.625H25.7833Z" fill="url(#paint0_linear_1_28)"/>
</g>
</g>
<defs>
<linearGradient id="paint0_linear_1_28" x1="32.2671" y1="6.625" x2="32.2671" y2="46.375" gradientUnits="userSpaceOnUse">
<stop stop-color="#8C1F08"/>
<stop offset="1" stop-color="#315970" stop-opacity="0"/>
</linearGradient>
<clipPath id="clip0_1_28">
<rect width="65" height="53" fill="white"/>
</clipPath>
</defs>
</svg>
