<svg width="86" height="141" viewBox="0 0 86 141" fill="none" xmlns="http://www.w3.org/2000/svg">
<g id="Group">
<path id="Vector" d="M37.3168 17.6955C37.7918 19.8987 37.7136 22.3211 37.0994 24.4298C36.4852 26.5385 35.3854 28.1609 34.0417 28.9403C29.3968 31.6327 25.2927 36.3667 22.178 42.6248C19.0632 48.8829 17.0575 56.4243 16.3802 64.425C15.7029 72.4256 16.3799 80.5776 18.3374 87.9899C20.2949 95.4023 23.4574 101.79 27.4794 106.455C31.5014 111.119 36.2281 113.882 41.1429 114.44C46.0578 114.998 50.9716 113.331 55.3475 109.619C59.7233 105.908 63.3928 100.297 65.9549 93.3975C68.517 86.4984 69.8731 78.5773 69.875 70.5C69.875 63.45 68.8717 56.8113 67.0836 50.9245C66.7692 49.888 66.5825 48.7601 66.534 47.6052C66.4855 46.4504 66.5763 45.2912 66.8011 44.1938C67.255 41.9776 68.2273 40.1478 69.5041 39.1069C70.7809 38.0661 72.2576 37.8995 73.6094 38.6437C74.9611 39.388 76.0772 40.9821 76.712 43.0755C79.2933 51.5973 80.6328 60.9852 80.625 70.5C80.625 104.569 63.7797 132.188 43 132.188C22.2203 132.188 5.375 104.569 5.375 70.5C5.375 43.6278 15.8527 20.7916 30.4583 12.3258C31.8021 11.547 33.2796 11.6752 34.5658 12.6822C35.8519 13.6892 36.8415 15.4925 37.3168 17.6955ZM44.7917 17.7073C44.7911 16.3668 44.9757 15.0436 45.3318 13.837C45.6879 12.6304 46.2061 11.5718 46.8475 10.7406C47.4889 9.90951 48.2369 9.32749 49.0352 9.03831C49.8335 8.74914 50.6614 8.76031 51.4567 9.071L51.9153 9.28838L62.6152 15.1399C63.9253 15.8557 65.0171 17.3707 65.6642 19.3708C66.3113 21.371 66.4641 23.7027 66.0908 25.8825C65.7175 28.0623 64.8468 29.923 63.6593 31.0786C62.4718 32.2342 61.0586 32.5961 59.7127 32.0893L59.2182 31.8601L55.5417 29.8509V70.5L55.5238 71.628C55.3864 75.7245 54.5049 79.66 52.9924 82.9284C51.4798 86.1969 49.4056 88.6488 47.0363 89.9688C44.667 91.2889 42.111 91.4167 39.6971 90.3359C37.2831 89.2552 35.1216 87.0152 33.4903 83.904C31.8591 80.7928 30.8328 76.9528 30.5434 72.8776C30.2541 68.8024 30.7149 64.6785 31.8665 61.0362C33.0182 57.3938 34.8081 54.3996 37.0061 52.4385C39.204 50.4774 41.7095 49.6391 44.2004 50.0315L44.7917 50.149V17.7073Z" fill="white"/>
</g>
</svg>
