<?xml version="1.0" encoding="UTF-8"?>
<svg version="1.1" viewBox="0 0 1600 1600" width="1280" height="1280" xmlns="http://www.w3.org/2000/svg">
<path transform="translate(476 118)" d="m0 0h2.63c23.9 0.03 47.4 2.04 71.1 5.19 1.09 0.13 1.09 0.13 2.21 0.27 4.67 0.61 4.67 0.61 5.79 1.73 1.43 0.32 2.87 0.59 4.31 0.83 0.9 0.16 1.81 0.31 2.74 0.47 1.46 0.25 1.46 0.25 2.95 0.51 13.5 2.39 26.8 5.42 40 9.19v2c0.99-0.33 1.98-0.66 3-1 3.11 0.67 3.11 0.67 6.75 1.75 1.19 0.34 2.38 0.69 3.61 1.04 3.65 1.21 7.11 2.67 10.6 4.21 2.55 0.99 5.12 1.93 7.69 2.87 10.2 3.79 20.1 7.95 29.9 12.6 2.18 1.02 4.37 2.01 6.57 2.98 19.4 8.69 38.2 19.6 55.8 31.6 0.95 0.65 1.91 1.31 2.9 1.98 2.38 1.66 4.74 3.33 7.1 5.02 1.83 1.29 3.66 2.58 5.5 3.87 1.22 0.86 1.22 0.86 2.47 1.74 1.97 1.41 1.97 1.41 4.03 2.39v2c0.69 0.22 1.39 0.44 2.11 0.67 3.56 1.63 6.23 3.94 9.14 6.52 1.14 0.99 2.29 1.98 3.43 2.97 0.56 0.49 1.12 0.97 1.7 1.47 2.93 2.48 6.01 4.76 9.11 7.03 0.49 0.44 0.99 0.88 1.51 1.34v2c0.73 0.23 1.46 0.47 2.21 0.72 3.21 1.47 4.95 3.2 7.35 5.78 3.71 3.97 3.71 3.97 8.44 6.5h3c1.9-1.94 3.5-4.03 5.18-6.15 1.97-2 3.08-2.47 5.82-2.85v-3c1.63-1.06 3.3-2.06 5-3l3-3c4.3-3.61 8.64-7.21 13.4-10.2 2.68-1.66 2.68-1.66 4.75-3.94 2.05-1.98 3.2-2.17 5.88-2.81l1-3c2.12-1.44 2.12-1.44 5-3 4.49-2.31 4.49-2.31 8.39-5.44 2.73-2.66 6.13-4.28 9.43-6.16 2.3-1.22 2.3-1.22 3.18-3.4 1.88-0.95 3.77-1.88 5.68-2.8 3.19-1.66 6.1-3.67 9.04-5.74 2.67-1.72 5.42-3.08 8.28-4.46 2.48-1.23 4.96-2.46 7.43-3.69 0.7-0.35 1.4-0.69 2.12-1.05 4.1-2.05 8.15-4.17 12.2-6.38 6.93-3.8 13.9-6.88 21.3-9.66 3.01-1.03 3.01-1.03 4.95-3.22 1.85-0.75 1.85-0.75 4.06-1.44 0.8-0.26 1.61-0.52 2.44-0.78 1.6-0.5 3.21-1 4.81-1.5 3.73-1.19 7.13-2.46 10.6-4.35 4.77-2.52 9.83-3.19 15.1-3.93v-2c1.77-0.38 1.77-0.38 3.58-0.77 7.49-1.63 14.9-3.24 22.2-5.58 3.12-0.93 6.28-1.58 9.47-2.22 1.74-0.28 1.74-0.28 2.72-1.43 2.04-0.43 4.09-0.81 6.15-1.16 1.88-0.33 1.88-0.33 3.79-0.66 1.33-0.23 2.66-0.46 3.99-0.68 2.6-0.45 5.19-0.9 7.78-1.35 1.74-0.29 1.74-0.29 3.51-0.6 2.72-0.41 2.72-0.41 4.78-1.55 2.52-0.36 5.02-0.67 7.55-0.94 0.76-0.08 1.52-0.17 2.3-0.26 2.49-0.27 4.97-0.54 7.46-0.8 1.28-0.14 1.28-0.14 2.58-0.28 19.5-2.06 38.7-2.8 58.2-2.85 0.84 0 1.69 0 2.55-0.01 9.29-0.02 18.6 0.12 27.8 0.58 0.8 0.04 1.59 0.08 2.41 0.12 5.6 0.31 5.6 0.31 8.13 0.95 2.68 0.66 5.23 0.55 7.97 0.49v1c13.9 1.48 13.9 1.48 28 3v1c1.94 0.27 1.94 0.27 3.92 0.55 12.3 1.76 24.1 4 36.1 7.45 1.16 0.33 2.33 0.66 3.53 1 1.75 0.49 1.75 0.49 3.53 1 1.17 0.33 2.33 0.66 3.54 1 3.16 0.93 6.27 1.94 9.4 3 1.61 0.53 3.22 1.06 4.83 1.58 1.8 0.6 3.61 1.2 5.42 1.79 0.89 0.29 1.78 0.59 2.7 0.89 19.7 6.5 38.7 15.3 57.1 24.8 3.63 1.86 7.28 3.67 10.9 5.49 1.35 0.67 2.71 1.35 4.06 2.03 0.97 0.48 1.94 0.97 2.94 1.47v2c0.56 0.11 1.12 0.23 1.7 0.35 10.3 2.91 19.6 10.6 28.3 16.6 1.18 0.8 1.18 0.8 2.38 1.63 10.7 7.31 21 14.9 31 23.1 2.2 1.8 4.45 3.53 6.69 5.28 5.61 4.49 10.8 9.39 16.1 14.3 1.89 1.77 3.79 3.53 5.7 5.28 7.97 7.34 15.5 14.9 22.8 22.9 2.97 3.23 6.06 6.32 9.19 9.38 4.42 4.38 8.69 8.88 12.1 14.1v2c0.99 0.33 1.98 0.66 3 1 1.38 1.96 2.71 3.97 4 6 0.82 1.09 1.66 2.18 2.51 3.25 0.64 0.82 0.64 0.82 1.3 1.65 0.88 1.11 1.76 2.22 2.65 3.33 2.46 3.13 4.28 5.99 5.54 9.77h2c1.48 2.1 2.85 4.19 4.19 6.37 0.81 1.3 1.62 2.6 2.44 3.9 0.4 0.64 0.81 1.28 1.22 1.94 1.49 2.32 3.09 4.56 4.71 6.79 3.89 5.49 7.14 11.3 10.4 17.2 1.02 1.82 2.06 3.62 3.1 5.41 4.26 7.34 8.21 14.8 11.9 22.4 0.68 1.37 1.37 2.75 2.06 4.12l0.95 1.9c0.72 1.43 1.44 2.87 2.17 4.3 5.1 10.1 9.51 20.3 13.4 30.9 1.1 2.97 2.26 5.91 3.47 8.84 2.15 5.32 3.93 10.8 5.71 16.2 0.76 2.31 1.53 4.61 2.33 6.91 2.15 6.21 3.82 12.4 5.19 18.8 0.66 3.02 0.66 3.02 1.7 5.93 1.14 3.47 1.83 6.92 2.51 10.5 0.7 3.7 1.41 7.29 2.49 10.9 1.27 4.65 1.92 9.29 2.57 14l0.75 5.4c0.17 1.18 0.17 1.18 0.33 2.39 0.18 1.85 0.18 1.85 1.36 2.84 0.27 1.8 0.49 3.62 0.68 5.44 0.12 1.13 0.24 2.27 0.37 3.43 0.13 1.22 0.25 2.44 0.38 3.69 0.27 2.48 0.54 4.96 0.81 7.45 0.13 1.2 0.26 2.41 0.39 3.65 0.45 4.09 0.92 8.19 1.43 12.3 0.14 1.11 0.27 2.21 0.41 3.34 0.29 2.04 0.6 4.08 1.02 6.09 1.85 9.28 1.81 18.5 1.77 27.9-0.01 2.82 0 5.63 0.01 8.45 0.01 9.02-0.31 17.5-2.27 26.3-0.35 2.13-0.68 4.27-1 6.41-0.25 1.64-0.25 1.64-0.5 3.31-0.34 2.23-0.67 4.46-1 6.69-1 6.57-2.12 13.1-3.5 19.6h-2c0.06 1.05 0.12 2.1 0.19 3.19-0.02 6.13-1.67 11.9-3.19 17.8-0.16 0.63-0.32 1.27-0.49 1.92-1.82 7.18-3.78 14.2-6.51 21.1-0.51 1.47-1.01 2.95-1.5 4.43-0.38 1.13-0.38 1.13-0.76 2.28-0.49 1.52-0.98 3.05-1.46 4.58-1.4 4.4-3.01 8.44-5.22 12.5-1.23 2.57-2.19 5.22-3.17 7.89-6.84 17.9-15.2 35.3-24.8 51.8-2.34 4.06-4.28 8.14-6.05 12.5h-2c-0.19 0.95-0.37 1.9-0.57 2.87-1.27 4.53-3.93 7.87-6.68 11.6-2.34 3.35-4.04 6.8-5.75 10.5h-2c-0.19 0.78-0.37 1.56-0.57 2.37-1.63 4.12-3.83 7.19-6.42 10.8-3.02 4.32-5.65 8.85-8.31 13.4-0.56 0.82-1.12 1.64-1.7 2.49h-2l-2 6h-2c-0.27 0.73-0.54 1.46-0.81 2.22-1.17 2.72-2.47 4.82-4.19 7.21-0.62 0.87-1.25 1.74-1.89 2.63-0.69 0.97-1.39 1.94-2.11 2.94-0.79 1.12-1.58 2.25-2.37 3.37-4.64 6.62-9.47 13-14.7 19.2-2.24 2.81-4.12 5.71-5.9 8.82-1.17 1.81-2.54 3.15-4.07 4.66l-2 3h-2c-0.23 0.7-0.46 1.4-0.69 2.12-1.6 3.52-3.77 5.97-6.31 8.88-2.14 2.62-4.13 5.18-6 8h-2c-0.24 0.55-0.48 1.11-0.72 1.69-2.11 3.8-5.22 6.71-8.19 9.87-1.83 2.14-2.93 3.91-4.09 6.44-1.31 1.35-2.65 2.68-4 4-1.57 1.85-3.11 3.72-4.64 5.61-0.45 0.46-0.9 0.91-1.36 1.39h-2l-0.81 2.43c-0.59 1.27-0.59 1.27-1.19 2.57-0.99 0.33-1.98 0.66-3 1-1.11 1.88-1.11 1.88-2 4l-2 3h-2c-0.23 0.72-0.46 1.44-0.69 2.19-1.58 3.38-3.51 5.35-6.31 7.81-0.99 0.33-1.98 0.66-3 1-1.05 1.86-1.05 1.86-2 4-0.94 1.28-1.92 2.53-2.94 3.75-0.5 0.61-1.01 1.22-1.53 1.86-1.53 1.39-1.53 1.39-4.53 1.39-0.15 0.86-0.15 0.86-0.3 1.75-0.85 2.72-2.1 4.14-4.01 6.25-0.64 0.7-1.27 1.4-1.93 2.12-1.88 2-3.82 3.93-5.76 5.88-0.94 1.12-1.88 2.24-2.81 3.37-2.62 3.1-5.46 5.64-8.59 8.21-2.16 1.91-3.81 4.16-5.6 6.42h-2c-0.4 0.96-0.4 0.96-0.81 1.93-1.19 2.07-1.19 2.07-4.19 3.07l-2 4c-0.99 0.33-1.98 0.66-3 1-0.7 1.31-1.37 2.65-2 4-1.31 1.43-1.31 1.43-3 3-0.83 0.82-1.65 1.65-2.5 2.5-0.83 0.82-1.65 1.65-2.5 2.5-0.84 0.89-0.84 0.89-1.69 1.81-1.31 1.19-1.31 1.19-3.31 1.19-0.26 0.6-0.53 1.2-0.8 1.81-1.27 2.32-2.47 3.48-4.51 5.12-3.89 3.21-7.48 6.49-10.6 10.5-2.26 2.73-4.69 4.84-7.4 7.09-1.49 1.28-2.9 2.65-4.29 4.04-2.43 2.44-2.43 2.44-5.31 4.75-2.45 1.99-4.46 4.15-6.5 6.56-2.9 3.4-5.96 6.31-9.36 9.19-3.75 3.22-7.33 6.62-10.9 10-2.32 1.94-2.32 1.94-4.32 1.94-0.4 0.96-0.4 0.96-0.81 1.93-1.19 2.07-1.19 2.07-4.19 3.07-0.31 0.61-0.61 1.22-0.92 1.85-1.36 2.7-2.96 3.81-5.39 5.58-3.53 2.64-6.62 5.41-9.69 8.57-1.67 1.33-3.34 2.66-5 4-0.79 0.78-1.57 1.57-2.38 2.37-2.06 2.06-4.13 4.02-6.31 5.94-0.58 0.51-1.16 1.02-1.76 1.55-1.55 1.14-1.55 1.14-3.55 1.14-0.37 0.87-0.37 0.87-0.75 1.76-1.44 2.57-3.03 4.07-5.25 5.99-0.7 0.61-1.4 1.22-2.13 1.86-1.87 1.39-1.87 1.39-3.87 1.39-0.22 0.56-0.44 1.13-0.67 1.71-1.76 3.02-3.98 4.69-6.71 6.85-0.95 0.76-1.91 1.53-2.9 2.32-0.9 0.7-1.8 1.4-2.72 2.12-0.74 0.58-1.47 1.17-2.23 1.77-1.77 1.23-1.77 1.23-3.77 1.23-0.4 0.96-0.4 0.96-0.81 1.93-1.19 2.07-1.19 2.07-4.19 3.07v2c-1.67 1-3.34 2-5 3-1.69 1.64-3.36 3.31-5 5-11 10-11 10-14 10-0.25 0.64-0.5 1.28-0.75 1.93-1.25 2.07-1.25 2.07-3.32 2.63-0.63 0.14-1.27 0.29-1.93 0.44l-1 3c-1.6 1.39-1.6 1.39-3.63 2.81-3.5 2.51-6.73 5.19-9.93 8.09-1.44 1.1-1.44 1.1-3.44 1.1l-1 3c-1.33 0.68-2.66 1.35-4 2-1.36 1.31-2.69 2.65-4 4-12.1 11-12.1 11-16 11-0.25 0.64-0.5 1.28-0.75 1.93-1.25 2.07-1.25 2.07-3.32 2.63-0.63 0.14-1.27 0.29-1.93 0.44l-1 3c-1.34 0.66-2.67 1.33-4 2-0.77 0.76-1.53 1.52-2.31 2.31-3.06 3.05-6.09 5.31-9.69 7.69h-2c-0.25 0.62-0.5 1.23-0.75 1.87-1.5 2.55-2.62 2.89-5.25 4.13-0.58 0.58-1.16 1.15-1.75 1.75-3.12 3.11-6.55 5.85-10.2 8.25h-2l-1 3c-1.32 0.7-2.65 1.36-4 2-0.43 0.43-0.86 0.86-1.3 1.31-2.2 2.18-4.62 3.88-7.14 5.69-3.94 2.82-3.94 2.82-7.79 5.75-1.77 1.25-1.77 1.25-3.77 1.25l-1 3c-1.32 0.7-2.65 1.36-4 2l-1.27 1.27c-2.36 2.35-4.96 4.28-7.61 6.29-1.03 0.79-2.05 1.57-3.11 2.38-3.01 2.06-3.01 2.06-5.83 3.15-1.08 0.45-1.08 0.45-2.18 0.91l-1 3c-1.31 0.92-2.62 1.84-3.98 2.68-3.67 2.39-7.13 5.08-10.6 7.71-2.39 1.61-2.39 1.61-4.39 1.61l-1 3c-1.96 1.39-3.97 2.72-6 4-0.72 0.58-1.45 1.15-2.19 1.75-1.81 1.25-1.81 1.25-4.81 1.25-0.21 0.58-0.42 1.15-0.63 1.75-2.36 3.87-6.02 5.74-10.2 7.31-0.73 0.31-1.45 0.62-2.19 0.94l-1 3c-1.31 0.92-2.62 1.84-3.98 2.68-3.67 2.39-7.13 5.08-10.6 7.71-2.39 1.61-2.39 1.61-4.39 1.61v2c-2.91 2.04-4.4 3-8 3l-1 3c-1.32 0.7-2.65 1.36-4 2-0.43 0.44-0.85 0.88-1.29 1.33-2.21 2.15-4.63 3.68-7.21 5.36-5.19 3.4-10.2 6.99-15.1 10.7-2.37 1.57-2.37 1.57-4.62 2.1-0.58 0.16-1.16 0.31-1.75 0.47l-1 3c-1.67 1.31-1.67 1.31-3.75 2.56-1.08 0.65-1.08 0.65-2.18 1.31-2.07 1.13-2.07 1.13-5.01 2.25-0.68 0.29-1.36 0.58-2.06 0.88l-1 3c-2.65 1.92-2.65 1.92-6 4-1.08 0.68-2.16 1.37-3.26 2.08-0.56 0.35-1.12 0.7-1.69 1.06-6.02 3.82-11.8 7.82-17.6 12.1-9.38 6.8-9.38 6.8-12.5 6.8l-1 3c-2.55 1.68-2.55 1.68-5.75 3.43-4.09 2.26-7.63 4.64-11.2 7.57-2.03 1.3-4.07 2.57-6.13 3.81-5.25 3.18-10.4 6.46-15.5 9.84-4.82 2.77-9.68 2.56-15.1 2.6-0.78 0.02-1.55 0.04-2.35 0.06-7.32 0.05-13.2-1.96-19.4-5.88-0.67-0.41-1.34-0.82-2.03-1.25-0.49-0.39-0.97-0.78-1.47-1.18v-2c-0.79-0.19-1.57-0.37-2.38-0.57-4.1-1.62-7.16-3.8-10.7-6.37-3.24-2.3-6.55-4.44-9.9-6.56-5.78-3.68-11.4-7.53-17-11.5-8.37-5.9-16.7-11.8-25.6-16.9-0.47-0.36-0.95-0.72-1.43-1.08v-2c-1.18-0.47-1.18-0.47-2.38-0.94-2.62-1.06-2.62-1.06-4.62-2.06v-2c-1.09-0.4-1.09-0.4-2.2-0.81-2.77-1.18-5.11-2.53-7.61-4.19-0.8-0.52-1.59-1.03-2.4-1.57-0.89-0.71-0.89-0.71-1.79-1.43v-2c-0.89-0.25-1.78-0.5-2.69-0.76-3.44-1.29-5.48-2.74-8.25-5.12-3.26-2.71-6.37-4.99-10.1-6.99-4.53-2.65-8.9-5.76-12.9-9.13v-2c-1.18-0.47-1.18-0.47-2.38-0.94-2.62-1.06-2.62-1.06-4.62-2.06v-2c-0.73-0.27-1.46-0.54-2.21-0.82-2.72-1.15-4.98-2.47-7.42-4.12-0.75-0.5-1.51-1.01-2.29-1.53-2.08-1.53-2.08-1.53-3.55-3.01-1.96-1.95-4.12-3.4-6.41-4.96-3.5-2.39-6.82-4.91-10.1-7.56-1.81-1.35-3.62-2.68-5.44-4-0.95-0.7-1.91-1.39-2.89-2.1-2.09-1.49-4.19-2.91-6.36-4.28-0.76-0.53-1.53-1.07-2.31-1.62v-2c-0.71-0.24-1.42-0.48-2.15-0.72-3.33-1.5-5.65-3.41-8.42-5.78-3.07-2.63-5.82-4.73-9.43-6.5-1.02-0.99-2.02-1.99-3-3-2.03-1.63-4.06-3.23-6.13-4.81-0.57-0.45-1.15-0.89-1.74-1.35-4-3.04-8.08-5.9-12.3-8.59-1.8-1.25-1.8-1.25-3.22-2.69-2.81-2.77-6.23-4.76-9.5-6.94-1.03-0.8-1.03-0.8-2.08-1.62v-2c-1.09-0.37-1.09-0.37-2.19-0.75-3.08-1.37-5.25-3.09-7.81-5.25l-3-2v-2c-1.09-0.36-1.09-0.36-2.19-0.73-3.23-1.46-5.24-3.27-7.81-5.71-2.54-2.41-4.8-4.44-7.81-6.22-1.09-0.67-1.09-0.67-2.19-1.34v-2c-1.07-0.36-1.07-0.36-2.15-0.73-3.3-1.47-5.65-3.33-8.42-5.65-0.92-0.77-1.85-1.54-2.81-2.33-1.66-1.45-3.27-2.95-4.82-4.5-1.83-1.82-3.45-2.78-5.8-3.79v-2c-0.73-0.25-1.46-0.49-2.21-0.74-3.13-1.42-5.01-3.08-7.48-5.45-4.24-3.95-8.62-7.24-13.5-10.4-0.91-0.7-0.91-0.7-1.83-1.41v-2c-0.54-0.23-1.09-0.47-1.64-0.71-3.05-1.67-5.47-3.79-8.11-6.04-4.18-3.56-8.42-6.95-12.9-10.1-0.44-0.38-0.88-0.76-1.33-1.15v-2c-0.56-0.24-1.11-0.47-1.68-0.71-2.91-1.62-5.03-3.64-7.45-5.92-5.96-5.51-12.2-10.6-18.7-15.5-1.1-0.94-1.1-0.94-2.21-1.9v-2c-0.78-0.32-0.78-0.32-1.58-0.65-3.44-1.92-6.22-4.45-9.17-7.04-0.62-0.54-1.24-1.07-1.88-1.63-4-3.46-7.98-6.95-11.9-10.5-1.46-1.3-1.46-1.3-3.45-2.2v-2h-2v-2c-0.56-0.25-1.12-0.5-1.69-0.75-3.7-2-6.65-4.59-9.62-7.56-2.73-2.73-5.53-5.34-8.38-7.94-0.79-0.72-0.79-0.72-1.59-1.46-3.21-2.94-6.46-5.84-9.72-8.73-3.79-3.39-7.38-6.93-10.9-10.6-4.59-4.67-9.41-8.84-14.5-12.9-3.07-2.54-5.83-5.3-8.6-8.16-2.64-2.64-5.48-5.01-8.36-7.38-1.56-1.54-1.56-1.54-2.56-4.54-1.32-0.7-2.66-1.36-4-2-1.92-1.66-1.92-1.66-3.75-3.5-0.62-0.61-1.23-1.22-1.86-1.85-1.39-1.65-1.39-1.65-1.39-3.65-0.56-0.23-1.11-0.46-1.68-0.69-3-1.69-5.05-3.83-7.46-6.29-0.47-0.48-0.95-0.96-1.44-1.46-1.52-1.54-3.04-3.08-4.55-4.63-1.52-1.54-3.04-3.09-4.56-4.63-1.38-1.4-2.76-2.8-4.13-4.2-2-2.14-2-2.14-4.18-3.1v-2h-2c-1.66-1.61-1.66-1.61-3.5-3.75-0.61-0.7-1.22-1.39-1.85-2.11-1.65-2.14-1.65-2.14-2.74-4.34-1.19-2.36-2.59-2.68-4.91-3.8l-1-3c-0.56-0.27-1.12-0.54-1.69-0.81-3.35-1.73-5.94-4.28-8.31-7.19v-2c-0.99-0.33-1.98-0.66-3-1-1.37-1.56-2.68-3.17-3.94-4.81-3.51-4.41-7.17-8.44-11.2-12.4-3.85-3.78-7.58-7.61-11.1-11.7-3.18-3.68-6.54-7.21-9.86-10.8-1.94-2.32-1.94-2.32-1.94-4.32h-2c-1.37-1.53-2.67-3.13-3.94-4.75-3.34-4.19-6.77-8.16-10.4-12.1-4.51-4.83-8.6-9.88-12.6-15.1-3.44-4.45-7.11-8.61-10.9-12.8-9.08-10.1-9.08-10.1-9.08-13.3h-2c-1.54-1.99-2.97-3.99-4.38-6.07-4.26-6.13-8.78-12-13.5-17.8-2.93-3.6-5.56-7.27-8.11-11.2-0.98-1.38-1.96-2.76-2.95-4.13-0.52-0.73-1.04-1.45-1.57-2.2-1.08-1.5-2.16-2.99-3.24-4.48-2.58-3.62-4.87-6.92-6.24-11.2h-2c-1.47-2.04-2.81-4.06-4.13-6.19-0.4-0.63-0.8-1.27-1.21-1.92-3.25-5.17-6.43-10.4-9.62-15.6-2.92-4.71-5.94-9.36-8.96-14-5.96-9.43-5.96-9.43-7.08-14.3l-2-1c-1.27-1.92-2.47-3.89-3.63-5.88-0.63-1.07-1.26-2.14-1.91-3.24-1.46-2.88-1.46-2.88-1.46-5.88h-2c-1.34-2.6-2.68-5.21-4-7.81-0.38-0.74-0.77-1.48-1.16-2.24-0.36-0.71-0.72-1.43-1.09-2.16-0.34-0.65-0.67-1.31-1.02-1.98-0.73-1.81-0.73-1.81-0.73-4.81h-2c-3-6.63-3-6.63-3-10h-2c-0.28-0.69-0.56-1.39-0.85-2.1-2.72-6.65-5.63-13.2-8.74-19.6-1.75-3.68-3.34-7.31-4.41-11.2l1-2h-2c-0.27-0.83-0.53-1.67-0.81-2.52-0.53-1.63-0.53-1.63-1.07-3.29-0.35-1.08-0.69-2.16-1.05-3.27-0.99-3.06-0.99-3.06-3.07-5.92-0.53-1.74-1-3.49-1.44-5.25-0.86-3.3-1.75-6.18-3.13-9.32-1.54-3.7-2.25-7.16-2.91-11.1-0.41-2.31-0.41-2.31-1.49-4.1-1.9-4.1-2.21-8.68-2.89-13.1-0.59-3.64-1.07-6-3.14-9.11-0.52-2.5-0.52-2.5-0.89-5.44-0.13-1.06-0.27-2.12-0.4-3.21-0.13-1.11-0.27-2.21-0.4-3.35-0.14-1.11-0.28-2.21-0.43-3.35-1.01-8.27-1.01-8.27 0.12-11.6h-2c-1.19-13.8-1.16-27.5-1.13-41.3 0-3.91 0-7.83-0.01-11.7v-7.59-3.49c0.06-20.7 0.06-20.7 2.14-24.9 0.34-2.39 0.64-4.77 0.9-7.17 0.17-1.47 0.34-2.93 0.51-4.4 0.26-2.3 0.52-4.61 0.78-6.92 0.25-2.22 0.51-4.45 0.77-6.68 0.08-0.68 0.15-1.36 0.23-2.06 0.52-4.43 1.54-8.51 2.81-12.8 0.29-1.55 0.56-3.11 0.78-4.67 0.12-0.81 0.24-1.62 0.36-2.46 0.24-1.67 0.48-3.35 0.71-5.02 0.63-4.26 1.45-7.88 3.15-11.8 0.51-2.24 0.99-4.5 1.43-6.75 1.17-5.6 2.62-10.9 4.57-16.2 1.85-5.33 3.48-10.7 5-16.1 1.36-4.82 2.92-9.3 5-13.9 0.8-2.06 1.59-4.12 2.37-6.19 1.69-4.43 3.46-8.82 5.32-13.2 1.36-3.21 2.58-6.31 3.43-9.69 0.88-2.93 0.88-2.93 2.35-4.39 2.08-2.1 2.7-4.52 3.66-7.26 2.96-7.81 7.37-15.1 11.4-22.4 3.28-5.9 6.46-11.8 9.44-17.9h2c0.37-1.27 0.37-1.27 0.75-2.57 1.35-3.73 3.16-6.96 5.25-10.3 0.35-0.59 0.71-1.18 1.08-1.79 0.91-1.49 1.91-2.91 2.92-4.33h2c0.27-0.93 0.53-1.86 0.81-2.81 1.18-3.16 1.92-3.93 4.19-6.19 1.09-1.94 1.09-1.94 2-4 1.32-2.92 2.69-4.79 5-7 0.46-0.96 0.46-0.96 0.93-1.94 1.31-2.54 3.02-4.08 5.07-6.06 2.43-2.93 4.72-5.96 7-9 4.96-6.63 10.1-13.1 16-19 0.84-1.1 0.84-1.1 1.71-2.22 3.27-3.98 6.98-7.48 10.7-11 0.84-0.83 0.84-0.83 1.7-1.67 0.51-0.5 1.02-0.99 1.54-1.49 1.47-1.56 1.47-1.56 2.41-3.72 0.95-1.85 0.95-1.85 3.07-2.6 0.62-0.08 1.24-0.17 1.88-0.25 0.06-0.6 0.12-1.2 0.19-1.81 1.14-3.08 3.01-3.51 5.81-5.19 1.59-1.68 3.05-3.44 4.52-5.23 3.44-4.13 6.84-7.11 11.5-9.77 5.13-3.89 9.92-8.25 14.7-12.5 4.11-3.63 8.46-6.76 13-9.86 1.77-1.24 3.49-2.56 5.17-3.91 1.99-1.58 3.87-2.57 6.13-3.69 0.42-0.44 0.84-0.88 1.27-1.33 2.23-2.16 4.67-3.7 7.29-5.36 0.97-0.62 1.94-1.25 2.94-1.89 2.5-1.42 2.5-1.42 4.5-1.42v-2c1.93-1.24 3.92-2.39 5.93-3.5 4.25-2.04 4.25-2.04 7.07-5.5 1.64-0.83 1.64-0.83 3.81-1.69 5.16-2.18 9.82-4.99 14.6-7.92 2.6-1.39 2.6-1.39 5.6-1.39v-2c1.16-0.53 1.16-0.53 2.35-1.07 6.05-2.76 12-5.6 18-8.62 4.84-2.44 9.58-4.52 14.7-6.31 1.27-0.56 2.54-1.12 3.81-1.69 3.19-1.31 3.19-1.31 6.19-1.31l1-2c1.97-0.71 3.94-1.39 5.93-2.02 3.89-1.25 7.72-2.61 11.6-3.98 8.52-3.02 17-5.93 25.7-8.26 2.07-0.55 4.13-1.13 6.19-1.72 12.5-3.55 25-6.11 37.7-8.36 1.13-0.2 2.27-0.4 3.44-0.61 1.02-0.18 2.04-0.36 3.1-0.54 2.29-0.28 2.29-0.28 3.34-1.51 2.6-0.37 5.19-0.67 7.81-0.94 0.8-0.08 1.6-0.17 2.43-0.26 1.71-0.18 3.42-0.36 5.13-0.53 2.56-0.27 5.12-0.54 7.67-0.81 17.1-1.81 34.1-2.67 51.3-2.65zm664 1.19v1h6v-1h-6zm19 1v1h6v-1h-6zm-687 59-1 1c-2.03 0.13-4.07 0.2-6.11 0.24-1.92 0.05-1.92 0.05-3.89 0.1-0.68 0.01-1.37 0.03-2.07 0.05-10.6 0.24-21.2 0.63-31.8 1.61-0.92 0.08-1.84 0.16-2.78 0.25-4 0.04-4 0.04-7.34 1.75-2.12 0.31-4.25 0.57-6.38 0.81-6.31 0.78-12.5 1.88-18.8 3.19-1.2 0.25-1.2 0.25-2.44 0.5-4 0.86-7.65 1.9-11.4 3.5-1.79 0.49-3.58 0.94-5.38 1.37-4.82 1.18-9.63 2.38-14.4 3.63-1.21 0.31-2.41 0.62-3.65 0.93-3.66 1.1-7.04 2.55-10.5 4.07-2.12 0.67-4.24 1.32-6.38 1.93-5.45 1.64-10.5 3.64-15.6 6.07-1.4 0.6-2.79 1.21-4.19 1.81-5.09 2.26-10 4.77-15 7.28-2.52 1.27-5.04 2.52-7.58 3.75-9.98 4.86-19.6 10.3-29.1 15.9-3.02 1.77-6.06 3.5-9.1 5.23v2c-0.89 0.25-1.78 0.49-2.69 0.75-3.45 1.3-5.52 2.89-8.31 5.25-1.34 0.66-2.67 1.33-4 2-0.44 0.45-0.88 0.9-1.33 1.36-2.61 2.55-5.72 4.3-8.81 6.24-0.61 0.46-1.23 0.92-1.86 1.4v2c-0.81 0.27-1.61 0.53-2.44 0.81-0.85 0.39-1.69 0.78-2.56 1.19l-1 3c-1.67 0.66-3.34 1.33-5 2-2.07 1.62-4.04 3.26-6 5-0.97 0.8-1.94 1.61-2.94 2.43-1.52 1.27-1.52 1.27-3.06 2.57-0.57 0.46-1.14 0.92-1.73 1.4-3.64 3.02-6.67 6.17-9.68 9.82-1.72 1.92-3.56 3.55-5.53 5.21-3.49 2.96-6.39 6.16-9.33 9.65-1.72 1.9-3.5 3.49-5.48 5.11-2.84 2.33-4.43 4.59-6.25 7.81-1.66 1.67-3.33 3.34-5 5-1.94 2.13-3.82 4.31-5.69 6.5-0.49 0.55-0.97 1.11-1.47 1.68-2.66 3.12-4.59 5.9-5.84 9.82h-3c-2.2 3.8-2.2 3.8-3 8h-2c-1.4 1.95-2.72 3.96-4 6-0.75 1.07-1.49 2.14-2.25 3.25-1.93 2.49-1.93 2.49-1.75 4.75h-2c-0.52 0.92-1.04 1.83-1.58 2.78-6.33 11.2-6.33 11.2-8.92 15.2-2.33 3.67-4.52 7.42-6.69 11.2-0.35 0.59-0.69 1.18-1.05 1.8-1.48 2.58-2.8 5.09-3.88 7.87-0.88 2.14-0.88 2.14-2.88 3.14-1 2.07-1 2.07-1.88 4.56-1.22 3.18-2.47 6.24-4.06 9.25-2.41 4.64-4.13 9.53-5.91 14.4-1.15 2.76-1.15 2.76-3.15 4.76-0.85 2.12-1.63 4.27-2.38 6.43-0.44 1.28-0.88 2.55-1.33 3.83-0.42 1.23-0.85 2.47-1.29 3.74-0.71 1.92-1.42 3.83-2.13 5.75-1.58 4.32-2.94 8.69-4.22 13.1-0.65 2.14-0.65 2.14-1.72 4.7-1.15 3-1.75 6.01-2.37 9.16-0.56 2.28-0.56 2.28-1.5 4.47-1.5 3.97-2.24 8.03-3.06 12.2-1.77 8.86-1.77 8.86-3.03 13.1-1.26 4.58-1.89 9.16-2.54 13.9-0.24 1.79-0.49 3.58-0.75 5.36-0.11 0.79-0.21 1.57-0.33 2.38-0.35 1.95-0.35 1.95-1.35 3.95-0.37 2.48-0.69 4.94-0.98 7.43-0.08 0.77-0.17 1.54-0.26 2.33-1.98 17.8-3.16 35.5-3.14 53.4v2.73c0 10.2 0.54 20 2.38 30.1 0.27 1.9 0.53 3.81 0.78 5.72 0.18 1.33 0.18 1.33 0.36 2.69 0.24 1.8 0.48 3.6 0.71 5.41 0.18 1.31 0.18 1.31 0.37 2.65 0.1 0.78 0.2 1.55 0.31 2.35 0.5 2.32 1.37 4.08 2.47 6.18 0.52 2.24 1 4.49 1.43 6.75 1.11 5.38 2.5 10.2 4.57 15.2 2.19 6.19 4.07 12.5 5.93 18.8 1.17 3.5 2.58 6.83 4.07 10.2 0.42 1 0.85 2.01 1.29 3.04 3.08 7.27 6.25 14.5 9.46 21.7 0.39 0.88 0.78 1.76 1.18 2.67 0.36 0.82 0.73 1.65 1.11 2.5 0.33 0.74 0.66 1.48 1 2.24 0.93 2.01 0.93 2.01 2.96 3.84 0.71 1.91 1.41 3.82 2.1 5.74 1.53 3.86 3.59 7.41 5.65 11 0.66 1.17 0.66 1.17 1.34 2.38 1.29 2.29 2.6 4.58 3.91 6.87 0.34 0.61 0.69 1.22 1.05 1.85 3.33 5.85 6.82 11.5 10.6 17.1 1.25 1.96 2.27 3.91 3.26 6.01 1.98 4.13 4.54 7.71 7.2 11.4 3.68 5.22 7.07 10.6 10.4 16.1 1.12 1.87 2.31 3.7 3.52 5.53h2c0.27 0.72 0.53 1.45 0.81 2.2 1.17 2.77 2.53 5.11 4.19 7.61 0.51 0.79 1.03 1.58 1.56 2.39 0.47 0.6 0.95 1.19 1.44 1.8h2c0.25 0.72 0.49 1.44 0.75 2.19 1.37 3.09 3.11 5.18 5.25 7.81 1.34 1.8 2.68 3.61 4 5.43 0.69 0.96 1.38 1.91 2.1 2.9 1.49 2.09 2.9 4.19 4.27 6.36 0.54 0.76 1.07 1.52 1.63 2.31h2c0.24 0.71 0.48 1.43 0.74 2.17 1.42 3.2 3.18 5.41 5.45 8.08 3.54 4.22 6.96 8.49 10.3 12.9 1.44 1.86 1.44 1.86 2.94 3.31 2.07 2.07 3.86 4.3 5.69 6.57 0.79 0.96 1.58 1.93 2.39 2.92 1.68 2.08 3.35 4.16 5.01 6.25 0.79 0.99 1.59 1.99 2.41 3.02 0.74 0.92 1.47 1.84 2.22 2.79 0.61 0.66 1.22 1.33 1.85 2.02h2c0.2 0.68 0.4 1.37 0.61 2.07 1.87 3.95 4.56 6.63 7.58 9.74 1.19 1.25 2.38 2.51 3.57 3.77 0.56 0.59 1.13 1.19 1.72 1.8 1.74 1.85 3.42 3.75 5.08 5.68 3.12 3.61 6.33 7.12 9.56 10.6 0.51 0.54 1.01 1.09 1.53 1.65 2.21 2.4 4.43 4.73 6.78 6.99 2.13 2.21 3.89 4.37 5.72 6.82 4.31 5.62 9.29 10.5 14.4 15.4 5.51 5.41 10.9 10.8 15.9 16.7 2.35 2.64 4.92 4.92 7.57 7.26 4.09 3.66 7.82 7.45 11.4 11.7 2.34 2.62 4.96 4.85 7.66 7.1 2.45 2.14 4.71 4.42 6.99 6.74 1.83 1.85 3.66 3.71 5.5 5.56 0.92 0.93 1.83 1.86 2.78 2.82 2.64 2.62 2.64 2.62 5.39 4.75 2.04 1.64 3.49 3.13 5.08 5.18 2.34 2.83 4.8 4.99 7.75 7.19 3.52 2.63 6.16 5.33 8.9 8.75 1.87 2.04 3.88 3.59 6.1 5.25 2.85 2.13 5.21 4.16 7.43 6.93 3.08 3.82 6.76 6.6 10.6 9.59 2.8 2.26 5.26 4.71 7.76 7.28 4.03 4.05 8.47 7.66 12.8 11.4 1.16 0.99 2.33 1.98 3.49 2.97 0.6 0.51 1.19 1.01 1.8 1.53 5.07 4.35 9.96 8.86 14.8 13.5 2.55 2.42 4.96 4.47 7.89 6.43 3.06 2.04 5.34 4.3 7.91 6.94 2.19 1.96 4.44 3.85 6.69 5.75 4.33 3.68 8.61 7.4 12.8 11.2 2.45 2.23 4.73 4.15 7.5 6 2.78 1.86 5.04 3.8 7.5 6.06 5.14 4.71 10.6 8.98 16.1 13.2 3.02 2.35 5.99 4.75 8.94 7.19 4.05 3.34 8.16 6.59 12.3 9.81 4.97 3.87 9.8 7.87 14.6 12 7.61 7.68 7.61 7.68 16.6 11.7v2c1.65 1.38 3.38 2.67 5.12 3.93 1.11 0.82 2.22 1.63 3.33 2.44 0.58 0.43 1.16 0.86 1.76 1.3 2.96 2.2 5.84 4.48 8.72 6.76 9.59 7.57 19.3 15 29 22.3 3.11 2.34 6.19 4.7 9.27 7.08 6.84 5.28 13.8 10.5 20.7 15.6 2.05 1.53 4.1 3.07 6.14 4.62 7 5.27 14 10.5 21.2 15.6 4.3 3.05 8.53 6.18 12.7 9.37 6.37 4.82 12.8 9.59 19.3 14.1 2.47 1.73 4.93 3.48 7.38 5.25 6.46 4.65 13 9.21 19.5 13.7 0.83 0.58 1.67 1.16 2.53 1.76 0.78 0.54 1.56 1.07 2.36 1.63 0.69 0.48 1.39 0.96 2.11 1.45 1.7 1.21 1.7 1.21 3.75 1.04v2c1.68 1.19 3.42 2.3 5.19 3.37 3.84 2.34 7.31 4.81 10.8 7.63 2.47 1.75 4.98 3.44 7.5 5.12 0.97 0.67 0.97 0.67 1.97 1.34 3.41 2.28 6.62 4.2 10.5 5.54v2c2.1 1.48 4.19 2.84 6.37 4.19 1.31 0.81 2.61 1.63 3.91 2.45 0.64 0.4 1.28 0.8 1.94 1.22 2.27 1.45 4.46 3 6.65 4.57 4.44 3.13 8.94 6.13 13.5 9.07 1.04 0.68 1.04 0.68 2.1 1.39 3.58 2.49 3.58 2.49 7.75 2.72 0.59-0.2 1.17-0.4 1.78-0.61v-2c0.87-0.25 1.75-0.5 2.65-0.76 3.5-1.3 5.94-2.88 8.91-5.12 0.91-0.68 1.82-1.35 2.75-2.05 1.78-1.38 3.55-2.77 5.29-4.19 2.99-2.35 6.07-4.06 9.4-5.88v-2c0.71-0.1 1.43-0.19 2.17-0.29 3.3-0.83 5.37-2.18 8.14-4.15 0.88-0.62 1.77-1.23 2.68-1.87 0.99-0.84 0.99-0.84 2.01-1.69v-2c1.14-0.19 1.14-0.19 2.31-0.38 2.89-0.5 2.89-0.5 5.69-2.62v-2c1.06-0.37 1.06-0.37 2.15-0.75 3.18-1.4 5.64-3.16 8.41-5.25 3.06-2.31 5.94-4.42 9.44-6v-2c0.7-0.24 1.4-0.48 2.12-0.72 3.4-1.52 6-3.49 8.94-5.78 6.3-4.9 6.3-4.9 9.94-6.5v-2c1.08-0.37 1.08-0.37 2.19-0.75 3.07-1.37 5.22-3.13 7.81-5.25 1.31-0.71 2.64-1.4 4-2v-2c1.98-0.66 3.96-1.32 6-2v-3c1.14-0.19 1.14-0.19 2.31-0.38 2.89-0.5 2.89-0.5 5.69-2.62v-2c0.72-0.26 1.44-0.52 2.18-0.78 2.99-1.3 5.27-2.84 7.88-4.79 0.95-0.7 1.91-1.41 2.89-2.14 1.01-0.76 2.01-1.51 3.05-2.29 1.04-0.79 2.09-1.58 3.17-2.39 2-1.51 4.01-3.02 6-4.53 2.01-1.48 4.08-2.88 6.18-4.22 0.88-0.62 1.75-1.23 2.65-1.86v-2c0.95-0.27 1.9-0.54 2.87-0.81 3.38-0.94 3.38-0.94 5.13-4.19 0.86-0.52 1.73-1.03 2.62-1.57 0.79-0.47 1.57-0.94 2.38-1.43v-2c0.53-0.06 1.07-0.13 1.62-0.19 3.42-1.17 5.65-3.49 8.38-5.81 0.99-0.33 1.98-0.66 3-1v-2c0.71-0.24 1.42-0.47 2.15-0.72 3.35-1.51 5.64-3.43 8.41-5.85 5.1-4.37 10.3-8.44 15.8-12.4 2.61-1.95 5.15-3.97 7.69-6.01 2.1-1.63 4.2-3.26 6.31-4.88 0.57-0.44 1.14-0.87 1.73-1.32 11.5-8.83 11.5-8.83 16-11.8v-2c0.73-0.25 1.46-0.49 2.21-0.75 3.09-1.39 4.92-2.98 7.35-5.32 6.37-5.9 13.2-11.1 20.4-15.9v-2c0.7-0.19 1.4-0.37 2.12-0.57 2.88-1.43 3.81-2.37 5.75-4.81 2.5-3.09 4.81-4.84 8.32-6.65 3.18-1.7 5.96-3.76 8.81-5.97v-2c0.54-0.24 1.09-0.48 1.65-0.72 2.95-1.61 5.33-3.62 7.91-5.78 2.77-2.31 5.44-4.5 8.44-6.5v-2c0.74-0.25 1.48-0.5 2.25-0.75 2.98-1.36 4.53-2.88 6.75-5.25l3-2v-2c0.68-0.19 1.36-0.37 2.06-0.57 3.49-1.7 5.51-3.9 8.17-6.69 2.35-2.31 5-3.98 7.77-5.74 1.02-0.98 2.02-1.98 3-3l2-1v-3l2.19-0.73c3.2-1.45 5.24-3.2 7.81-5.58 0.87-0.81 1.74-1.61 2.63-2.43 1.79-1.71 3.53-3.42 5.24-5.2 1.98-1.92 3.59-3.03 6.13-4.06v-2c0.55-0.25 1.11-0.5 1.69-0.75 3.61-1.96 6.52-4.21 9-7.5 0.64-0.87 0.64-0.87 1.31-1.75h2c1.4-1.43 1.4-1.43 2.81-3.25 2.48-3.02 5.12-5.32 8.19-7.75v-2c0.71-0.23 1.43-0.46 2.17-0.69 3.43-1.59 5.45-3.61 8.08-6.31 0.87-0.89 1.74-1.78 2.64-2.69 2.13-2.12 2.13-2.12 3.11-4.31 1.54-0.81 1.54-0.81 3.12-1.63 3.89-2.13 6.25-4.89 9.04-8.28 2.49-2.84 5.31-5.17 8.24-7.55 1.86-1.56 1.86-1.56 2.6-4.54 0.58-0.13 1.15-0.25 1.75-0.38 3.33-0.92 4.89-3.15 7.25-5.62 0.8-0.62 1.61-1.24 2.43-1.88 3.25-2.69 6.11-5.69 8.57-9.12v-2c0.64-0.27 1.28-0.54 1.93-0.81 2.4-1.08 2.4-1.08 3.07-4.19 0.84-0.17 0.84-0.17 1.7-0.35 3.51-1 5.58-3.54 8.05-6.09l1.53-1.53c2.84-2.54 2.84-2.54 3.72-6.03 0.64-0.27 1.28-0.54 1.93-0.81 2.4-1.08 2.4-1.08 3.07-4.19 1.33-0.67 2.66-1.34 4-2l1-3c1.33-0.67 2.66-1.34 4-2l1-3c2.06-0.69 2.06-0.69 4-1 0.08-0.62 0.16-1.24 0.25-1.88 0.75-2.12 0.75-2.12 2.49-2.96 6.78-3.49 12.7-11.1 17.3-17.2v-2c0.55-0.23 1.11-0.46 1.69-0.69 2.97-1.69 4.94-3.84 7.31-6.31 0.54-0.53 1.09-1.05 1.65-1.59 1.49-1.43 2.92-2.92 4.35-4.41v-2c0.99-0.33 1.98-0.66 3-1 0.73-2.02 0.73-2.02 1-4l4-1c0.08-0.62 0.16-1.24 0.25-1.88 0.75-2.12 0.75-2.12 2.58-3.02 2.53-1.29 3.84-2.74 5.67-4.91 0.6-0.72 1.21-1.43 1.83-2.17 1.3-1.58 2.58-3.17 3.86-4.77 1.81-2.26 3.76-4.21 5.81-6.25 1.26-1.37 2.51-2.74 3.75-4.13 0.61-0.68 1.22-1.36 1.86-2.07 1.59-1.69 1.59-1.69 1.39-3.8 0.64-0.25 1.28-0.5 1.93-0.75 2.26-1.04 2.26-1.04 2.57-3.25 0.24-0.99 0.24-0.99 0.5-2 1.33-0.67 2.66-1.34 4-2 0.24-0.99 0.24-0.99 0.5-2 0.24-0.99 0.24-0.99 0.5-2 1.32-0.69 2.66-1.35 4-2 1.39-1.62 2.71-3.3 4-5 0.95-1.11 1.91-2.22 2.87-3.31 6.11-6.19 6.11-6.19 9.13-13.7 0.64-0.25 1.28-0.5 1.93-0.75 2.27-1.05 2.27-1.05 2.63-3.32 0.14-0.63 0.29-1.27 0.44-1.93 0.99-0.33 1.98-0.66 3-1 1.49-1.78 2.89-3.62 4.25-5.5 3.4-4.68 6.9-9.26 10.5-13.8 1.41-1.66 1.41-1.66 1.22-3.74 0.99-0.33 1.98-0.66 3-1 1.06-1.63 2.05-3.31 3-5 0.53-0.68 1.07-1.36 1.62-2.07 1.51-1.85 1.51-1.85 1.88-4.12 0.16-0.6 0.33-1.2 0.5-1.81 0.99-0.33 1.98-0.66 3-1 0.24-0.99 0.24-0.99 0.5-2 0.24-0.99 0.24-0.99 0.5-2 0.99-0.33 1.98-0.66 3-1 2.02-2.71 2.02-2.71 4-6 0.7-1.11 1.41-2.22 2.14-3.36 1.04-1.68 1.04-1.68 2.11-3.39 0.36-0.58 0.72-1.15 1.1-1.75 2.02-3.02 2.02-3.02 2.65-6.5 0.99-0.33 1.98-0.66 3-1 1.6-2.23 3.07-4.42 4.5-6.75 0.39-0.62 0.78-1.25 1.18-1.89 1.12-1.78 2.22-3.57 3.32-5.36 0.59-0.94 1.17-1.87 1.78-2.83 1.38-2.05 1.38-2.05 1.22-4.17h2c0.29-0.55 0.58-1.09 0.88-1.65 2.25-4.14 4.59-8.14 7.24-12 2.27-3.34 4.17-6.65 5.88-10.3 1.07-2.09 2.15-4.18 3.23-6.27 0.9-1.72 0.9-1.72 0.77-3.73h2c1.34-2.79 2.67-5.58 4-8.38 0.38-0.79 0.76-1.59 1.15-2.4 0.36-0.76 0.73-1.52 1.1-2.31 0.5-1.05 0.5-1.05 1.01-2.12 0.86-1.78 0.86-1.78 0.74-3.79h2c1.67-3.67 3.34-7.33 5-11 0.48-1.05 0.48-1.05 0.96-2.12 1.16-2.59 2.05-4.96 2.6-7.76 0.14-0.7 0.29-1.4 0.44-2.12l2-1c1.03-2.07 1.03-2.07 1.93-4.57 0.35-0.9 0.7-1.81 1.06-2.75 0.33-0.88 0.67-1.77 1.01-2.68 0.26-0.69 0.52-1.38 0.78-2.09 0.49-1.29 0.97-2.58 1.44-3.88 0.85-2.21 1.75-4.4 2.65-6.6 3.9-9.71 7.12-19.6 9.45-29.8 0.68-2.58 0.68-2.58 1.7-5.01 1.15-3.03 1.56-5.87 1.98-9.07 0.42-3.19 0.79-6 1.99-8.99 3.51-8.79 3.27-19.7 3.67-29.1 0.24-5.27 0.24-5.27 1.34-6.37 0.1-1.94 0.13-3.89 0.13-5.83v-3.61c0-1.89 0-1.89-0.01-3.81 0.01-1.24 0.01-2.49 0.01-3.76v-3.63-3.33c-0.12-2.81-0.57-5.28-1.13-8.03-0.2-2.4-0.37-4.81-0.5-7.22-0.04-0.69-0.08-1.38-0.13-2.09-0.12-2.21-0.25-4.42-0.37-6.63-0.17-2.88-0.33-5.77-0.5-8.65-0.04-0.71-0.08-1.41-0.13-2.13-0.39-6.77-0.87-13.5-1.37-20.3h-1c-0.18-1.07-0.18-1.07-0.35-2.16-0.53-3.22-1.06-6.44-1.59-9.65-0.18-1.12-0.36-2.24-0.55-3.4-0.18-1.07-0.36-2.14-0.54-3.25-0.16-0.99-0.32-1.98-0.49-3-0.44-2.65-0.44-2.65-1.48-5.54-0.74-3.01-1.4-6.04-2.07-9.07-0.27-1.24-0.27-1.24-0.56-2.5-0.18-0.8-0.35-1.59-0.53-2.41-0.16-0.72-0.33-1.44-0.49-2.19-0.35-1.83-0.35-1.83-0.35-3.83h-2c-2-12-2-12-2.44-15.2-0.42-2.99-0.42-2.99-2.56-5.79-0.57-1.63-1.09-3.28-1.57-4.94-0.24-0.85-0.49-1.71-0.75-2.59-0.59-2.15-1.15-4.3-1.68-6.47h-2l-2-11h-2v-5h-2c-0.13-1.49-0.13-1.49-0.25-3-0.53-3.84-1.98-6.83-3.82-10.2-0.93-1.79-0.93-1.79-1.93-4.79h-2c-0.19-1.05-0.19-1.05-0.38-2.13-0.66-3.05-1.59-5.93-2.62-8.87h-2c-1.13-3.31-2.22-6.59-3-10h-2c-0.22-0.8-0.45-1.6-0.67-2.42-1.72-4.62-4.09-8.66-6.58-12.9-0.47-0.81-0.93-1.61-1.41-2.44-2.84-4.87-5.85-9.59-9-14.2-1.63-2.43-3.18-4.9-4.72-7.38-3.07-4.84-6.35-9.49-9.76-14.1-1.63-2.21-3.19-4.45-4.74-6.71-0.7-0.93-1.4-1.86-2.12-2.81h-2c-0.22-0.69-0.44-1.38-0.66-2.09-1.7-3.68-4.12-6.47-6.78-9.48-0.47-0.54-0.94-1.08-1.43-1.65-8.97-10.3-18.4-20.2-28-29.8-1.77-1.77-3.52-3.54-5.28-5.32-8.82-9.03-8.82-9.03-18.8-16.6h-2v-2c-2.64-2.4-2.64-2.4-6-3l-1-3c-1.32-0.7-2.65-1.37-4-2l-3-3c-1.99-1.36-3.99-2.69-6-4-0.75-0.58-1.49-1.16-2.25-1.75-1.67-1.45-1.67-1.45-3.75-1.25v-2c-1.98-1.45-3.92-2.74-6-4-0.63-0.38-1.25-0.76-1.89-1.15-3.33-2.14-3.33-2.14-7.11-2.85v-2c-0.8-0.44-0.8-0.44-1.62-0.89-4.04-2.22-8.02-4.5-12-6.92-4.53-2.75-9.2-5.18-13.9-7.57-0.71-0.36-1.42-0.71-2.15-1.08-3.5-1.89-3.5-1.89-7.35-2.54v-2c-4.81-2.29-4.81-2.29-10-3v-2c-0.81-0.31-1.62-0.61-2.46-0.92-5.39-2.04-10.7-4.11-15.9-6.58-5.58-2.6-11.3-4.49-17.2-6.38-2.57-0.84-5.1-1.71-7.62-2.69-7.31-2.79-14.7-5.33-22.3-6.88-2.97-0.66-5.86-1.52-8.78-2.36-8.99-2.46-18.1-3.97-27.3-5.53-1.18-0.2-2.36-0.4-3.58-0.61-1.07-0.18-2.13-0.36-3.23-0.54-2.56-0.51-2.56-0.51-4.56-1.51-38.2-5.34-85.2-7.29-123 1.51-3.33 0.75-6.68 1.26-10 1.8-8.82 1.49-17.4 3.74-26 6.12-1.98 0.53-3.97 1.02-5.96 1.5-5.28 1.31-10.5 2.92-15.7 4.5-1 0.3-1.99 0.6-3.01 0.91-7.32 2.23-14.4 4.8-21.5 7.66-0.71 0.27-1.42 0.54-2.15 0.82-7.07 2.74-13.9 5.94-20.8 9.19-2.21 1.05-4.44 2.08-6.66 3.11-1.52 0.71-3.04 1.42-4.56 2.13-0.71 0.33-1.42 0.66-2.15 0.99-3.71 1.74-7.25 3.58-10.7 5.76-5.67 3.43-11.4 6.79-17.1 10.1-8.64 4.5-8.64 4.5-16.3 10.4-5.08 5.05-11.8 8.8-17.9 12.4-2.55 1.72-4.47 3.9-6.57 6.14-2.23 2.09-4.51 3.43-7.12 5-0.9 0.89-0.9 0.89-1.81 1.81-1.95 1.95-3.84 3.41-6.07 5-3.41 2.51-5.97 5.19-8.63 8.46-3.07 3.54-6.81 6.38-10.5 9.29-0.94 0.78-0.94 0.78-1.91 1.56-0.57 0.46-1.15 0.92-1.74 1.39-1.55 1.42-1.55 1.42-1.89 3.6-0.16 0.63-0.33 1.25-0.49 1.89-1.49 0.49-1.49 0.49-3 1-1.49 1.53-1.49 1.53-2.88 3.37-2.49 2.99-4.58 4.9-8.12 6.63-0.57 0.35-1.13 0.7-1.72 1.06-5.23 2.89-10 3.33-15.9 3.37-0.71 0.01-1.43 0.02-2.17 0.04-12.1-0.2-20.2-8.24-28.3-16.4-1.88-2.05-1.88-2.05-3.88-5.05h-2c-0.26-0.59-0.51-1.19-0.77-1.8-1.37-2.45-2.76-3.74-4.92-5.51-2.74-2.32-5.32-4.67-7.81-7.26-2.94-3-6.07-5.47-9.51-7.88-1.99-1.55-1.99-1.55-4.32-3.9-2.95-2.93-6.06-5.44-9.36-7.96-0.58-0.46-1.16-0.91-1.76-1.38-2.94-2.51-2.94-2.51-6.55-3.31l-1-3c-3.01-1.23-3.01-1.23-6-2v-2c-1.4-1.23-1.4-1.23-3.38-2.44-0.8-0.52-1.61-1.04-2.44-1.58-2.53-1.58-5.07-3.13-7.61-4.68-0.79-0.48-1.58-0.96-2.4-1.46-1.59-0.96-3.19-1.93-4.79-2.88-3.13-1.89-6.08-3.71-8.9-6.04-3.4-2.63-7.08-4.24-11-5.99-4.66-2.11-9.16-4.2-13.5-6.93-8.6-4.87-8.6-4.87-18-7v-2c-0.72-0.26-1.43-0.51-2.16-0.77-8.79-3.16-8.79-3.16-12.5-4.8-7.2-3.12-14.4-5.35-22-7.46-3.18-0.93-6.22-2-9.29-3.21-7.28-2.72-14.9-4.54-22.4-6.33-0.91-0.21-1.82-0.43-2.76-0.65-5.9-1.38-11.8-2.56-17.8-3.42-2.08-0.36-2.08-0.36-4.08-1.36-1.68-0.28-3.37-0.51-5.06-0.72-1.54-0.19-1.54-0.19-3.11-0.39-1.08-0.13-2.16-0.26-3.27-0.39-1.04-0.13-2.09-0.26-3.16-0.4-12.6-1.55-25.2-2.43-37.8-3.09-2.72-0.14-5.43-0.29-8.15-0.44-1.72-0.09-3.45-0.18-5.17-0.27-0.81-0.04-1.63-0.09-2.47-0.14-1.92-0.09-3.85-0.13-5.77-0.16zm-450 279 1 2zm-5 17 1 2zm-1 4 1 2zm-4 15 1 3zm1514 14 1 2zm-1519 12 1 2zm-1 7 1 2zm1525 6 1 2zm-1529 22v6h1v-6h-1zm1533 8 1 3zm-1534 5 1 2zm1535 8v11h1v-11h-1zm0 44v8h1v-8h-1zm-5 37 1 3zm-1526 3 1 3zm1 6 1 3zm1500 65 1 3zm-423 472 1 2 1-2h-2z" fill="#F8FBFC"/>
<path transform="translate(1209 298)" d="m0 0c1.1-0.02 1.1-0.02 2.22-0.04 3.84-0.01 5.64 0.05 8.9 2.23 2.56 0.77 5.13 1.39 7.73 2.02 33.9 10.1 64.8 30.7 91.8 53 1.57 1.27 3.17 2.5 4.81 3.66 0.83 0.67 0.83 0.67 1.67 1.36v2c0.55 0.22 1.09 0.45 1.64 0.68 3.11 1.74 5.59 4.03 8.18 6.44 0.8 0.74 0.8 0.74 1.61 1.49 3.57 3.34 6.86 6.81 10 10.6 1.62 1.88 3.35 3.6 5.14 5.33 3.59 3.54 6.49 7.41 9.43 11.5 0.92 1.21 1.84 2.42 2.76 3.62 6.83 9.15 13.4 18.4 19.3 28.1 1.36 2.25 2.74 4.48 4.16 6.69 0.36 0.58 0.72 1.15 1.1 1.74 1.01 1.58 2.02 3.16 3.03 4.74 1.83 3.37 2.74 6.36 3.66 10.1h2c0.25 0.61 0.49 1.23 0.74 1.87 3.76 9.99 3.76 9.99 8.71 19.4 1.6 2.81 2.57 5.42 3.53 8.51 0.34 1.09 0.68 2.18 1.03 3.3 0.35 1.13 0.7 2.26 1.06 3.42 0.7 2.24 1.39 4.48 2.1 6.72 0.3 0.99 0.61 1.97 0.92 2.99 0.6 1.82 1.25 3.63 1.97 5.4 0.84 2.12 1.44 4.1 1.94 6.31 0.17 0.72 0.33 1.43 0.5 2.17 0.17 0.73 0.33 1.46 0.5 2.22 0.34 1.45 0.67 2.91 1 4.36 0.17 0.72 0.33 1.44 0.5 2.19 0.49 2.07 1.02 4.12 1.56 6.18 1 3.95 1.53 7.85 2.01 11.9 0.15 4.36 0.15 4.36 1.93 8.07 0.71 5.02 1.11 10.1 1.57 15.1 0.07 0.75 0.13 1.49 0.2 2.26 0.85 9.55 1.54 19.1 1.61 28.7 0.01 0.9 0.03 1.8 0.04 2.73-0.06 9.16-3.02 16.6-9.42 23.2-2.81 1.31-2.81 1.31-5 2-0.32 0.99-0.66 1.98-1 3-9.84 3.67-21.1 3.21-30.7-0.8-3.07-1.62-5.1-3.5-7.28-6.2-0.76-0.89-1.52-1.78-2.31-2.69-1.69-2.31-1.69-2.31-1.69-4.31h-2c-2.2-6.44-3.34-12.1-3.37-18.9-0.27-10.4-1.61-20.5-3.06-30.8-0.11-0.78-0.22-1.55-0.33-2.35-1.48-15.5-1.48-15.5-6.24-30-0.61-2.03-1.17-4.07-1.68-6.13-0.27-1.05-0.55-2.11-0.83-3.19-0.49-2.68-0.49-2.68 0.51-4.68h-2c-0.14-0.57-0.29-1.14-0.44-1.73-2.07-7.49-5.22-14.3-8.56-21.3-0.67-1.52-1.34-3.04-2-4.57-6.03-13.6-13.3-26.4-22-38.4-0.6-0.86-1.2-1.72-1.83-2.61-8.35-11.8-17.7-22.2-28-32.2-0.67-0.65-1.34-1.3-2.02-1.96-0.6-0.58-1.2-1.16-1.82-1.75-1.3-1.49-1.3-1.49-1.3-3.49-0.72-0.24-1.44-0.48-2.18-0.72-3.26-1.48-5.29-3.32-7.88-5.78-2.89-2.75-5.35-4.78-8.94-6.5-0.32-0.66-0.66-1.32-1-2-0.8-0.39-1.6-0.79-2.43-1.19-3.06-1.56-5.6-3.19-8.38-5.19-6.39-4.56-13.1-8.17-20.2-11.6-0.77-0.39-1.54-0.79-2.34-1.19-4.82-2.44-9.65-4.76-14.7-6.81-0.77-0.32-1.54-0.64-2.33-0.97-4.02-1.64-8.02-3.17-12.2-4.47-5.1-1.64-9.76-4.06-14.5-6.56v-2c-0.89-0.38-0.89-0.38-1.8-0.76-2.48-1.4-3.65-2.76-5.32-5.05-0.5-0.67-1-1.34-1.51-2.02-4.55-7.22-4.46-15.6-2.83-23.9 2.24-7.19 6.06-13.1 12.5-17.3 2.36-1.17 4.72-2.21 7.15-3.21 3.77-1.61 6.43-1.98 10.7-1.98zm157 257 1 2zm1 7 1 2zm1 9 1 4z" fill="#F8FBFC"/>
<path transform="translate(1092 290)" d="m0 0c6.52 0.13 10.8 1.05 15.8 5.46 0.97 1.02 0.97 1.02 1.97 2.06 0.68 0.66 1.35 1.32 2.04 2 6.48 6.83 8.53 13.1 8.46 22.4 0 0.84 0 1.68-0.01 2.55-0.17 6.45-1.35 11-5.49 16.1-0.86 1.36-0.86 1.36-1.75 2.75-6.72 6.73-14.3 8.39-23.5 8.5-6.27-0.02-11-0.82-16.8-3.25v-2c-0.74-0.22-1.48-0.45-2.25-0.68-3.29-1.58-4.72-3.32-6.75-6.32v-2h-2c-4.42-7.81-5.3-15.1-3.35-23.9 0.92-3.15 1.88-6.15 3.35-9.09h2c0.25-0.78 0.5-1.56 0.75-2.37 1.45-3.05 2.25-3.35 5.25-4.63 0.46-0.47 0.91-0.95 1.38-1.43 2.24-2.16 4.83-3.23 7.62-4.57 2.65-2.65 9.66-1.49 13.2-1.52z" fill="#F8FBFC"/>
<path transform="translate(1087,290)" d="m0 0h7v1h-7v-1z" fill="#F9FCFD"/>
<path transform="translate(62,622)" d="m0 0 1 4z" fill="#000002"/>
<path transform="translate(472,180)" d="m0 0 4 1z" fill="#000002"/>
<path transform="translate(1179,184)" d="m0 0 2 1z" fill="#000002"/>
<path transform="translate(418,184)" d="m0 0 2 1z" fill="#000002"/>
<path transform="translate(305,149)" d="m0 0 2 1z" fill="#F9FCFD"/>
</svg>
