<svg width="36" height="37" viewBox="0 0 36 37" fill="none" xmlns="http://www.w3.org/2000/svg">
<path id="Vector" d="M11.1242 17.2631C10.9978 17.4798 10.9095 17.7236 10.8647 17.9801C10.8199 18.2365 10.8195 18.5004 10.8635 18.7561C10.9074 19.0117 10.9949 19.2539 11.1207 19.4684C11.2465 19.6829 11.408 19.8652 11.5957 20.0045L28.1762 32.5716C28.4458 32.7752 28.7587 32.8877 29.0808 32.8969C30.037 32.9256 30.8371 32.0632 30.8699 30.9697L31.5937 6.8586C31.6048 6.48877 31.5252 6.12421 31.3638 5.80523C30.8862 4.86247 29.8292 4.54662 29.0008 5.10001L11.6964 16.648C11.4679 16.8012 11.2702 17.0134 11.1225 17.2651L11.1242 17.2631ZM10.9573 12.574L27.2729 1.68463C29.7582 0.0244491 32.9342 0.97417 34.3637 3.80033C34.847 4.753 35.0863 5.85016 35.0532 6.96245L34.3295 31.0716C34.2311 34.3521 31.829 36.9392 28.9603 36.8531C27.9921 36.824 27.052 36.4857 26.2466 35.8752L10.6136 24.0268L10.3654 32.2931C10.3336 33.3535 9.94326 34.3597 9.28029 35.0903C8.61732 35.8208 7.73603 36.216 6.83028 36.1888L3.41515 36.0863C2.5094 36.0591 1.6534 35.6118 1.03544 34.8428C0.417488 34.0737 0.0882067 33.046 0.120037 31.9856L0.960139 3.99819C0.991969 2.9378 1.3823 1.93165 2.04527 1.20107C2.70824 0.470484 3.58953 0.0753194 4.49528 0.102507L7.91041 0.20502C8.81616 0.232208 9.67217 0.679521 10.2901 1.44855C10.9081 2.21759 11.2374 3.24534 11.2055 4.30573L10.9573 12.574ZM6.95029 32.1906L7.7904 4.20322L4.37527 4.10071L3.53517 32.0881L6.95029 32.1906Z" fill="white"/>
</svg>
