<svg width="43" height="49" viewBox="0 0 43 49" fill="none" xmlns="http://www.w3.org/2000/svg">
<g id="jam:set-forward">
<path id="Vector" d="M27.5445 25.6585C27.6695 25.4409 27.756 25.1965 27.7989 24.9397C27.8419 24.6829 27.8405 24.4191 27.7947 24.1637C27.7489 23.9084 27.6597 23.6668 27.5324 23.4532C27.4051 23.2397 27.2423 23.0585 27.0536 22.9205L10.3843 10.4714C10.1132 10.2698 9.79956 10.1595 9.47744 10.1525C8.52102 10.1306 7.72705 10.9987 7.70199 12.0924L7.14944 36.2081C7.14097 36.578 7.22319 36.9419 7.38679 37.2598C7.87107 38.1991 8.93028 38.5075 9.75477 37.9482L26.9767 26.2776C27.2041 26.1228 27.4004 25.9092 27.5463 25.6565L27.5445 25.6585ZM27.7447 30.3463L11.5069 41.3512C9.03344 43.029 5.85072 42.1019 4.40126 39.2859C3.91114 38.3367 3.6641 37.2413 3.68927 36.1288L4.24177 12.0151C4.31695 8.73396 6.70056 6.12988 9.56981 6.19562C10.5382 6.21781 11.4807 6.54949 12.2904 7.15419L28.0072 18.8913L28.1966 10.6235C28.2209 9.56287 28.6041 8.55397 29.2619 7.8187C29.9196 7.08343 30.7981 6.68202 31.704 6.70277L35.1198 6.78104C36.0257 6.80179 36.8849 7.24302 37.5082 8.00764C38.1316 8.77227 38.4682 9.79766 38.4439 10.8583L37.8025 38.8509C37.7782 39.9115 37.3951 40.9204 36.7373 41.6557C36.0795 42.3909 35.2011 42.7923 34.2951 42.7716L30.8794 42.6933C29.9734 42.6726 29.1143 42.2313 28.4909 41.4667C27.8675 40.7021 27.5309 39.6767 27.5552 38.6161L27.7447 30.3463ZM31.6124 10.7017L30.971 38.6944L34.3868 38.7726L35.0281 10.78L31.6124 10.7017Z" fill="white"/>
</g>
</svg>
