<svg width="31" height="32" viewBox="0 0 31 32" fill="none" xmlns="http://www.w3.org/2000/svg">
<path id="Vector" d="M30.6633 25.1523C30.77 25.2873 30.8547 25.4478 30.9125 25.6243C30.9703 25.8009 31 25.9902 31 26.1813C31 26.3724 30.9703 26.5617 30.9125 26.7383C30.8547 26.9148 30.77 27.0753 30.6633 27.2103L27.2189 31.5738C27.0035 31.8467 26.7113 32 26.4066 32C26.102 32 25.8098 31.8467 25.5943 31.5738C25.3789 31.3008 25.2579 30.9307 25.2579 30.5447C25.2579 30.1588 25.3789 29.7886 25.5943 29.5157L27.0797 27.6358H25.3934C23.7489 27.634 22.1284 27.1359 20.6661 26.1827C19.2039 25.2294 17.9419 23.8485 16.9849 22.1542L10.9975 11.5366C10.2531 10.2189 9.2716 9.14492 8.13429 8.4035C6.99699 7.66209 5.73661 7.27461 4.45756 7.27317H1.14811C0.843616 7.27317 0.551588 7.11993 0.336275 6.84716C0.120962 6.5744 0 6.20445 0 5.8187C0 5.43295 0.120962 5.063 0.336275 4.79023C0.551588 4.51746 0.843616 4.36422 1.14811 4.36422H4.45756C6.10207 4.36596 7.72259 4.86408 9.18486 5.81734C10.6471 6.7706 11.909 8.15154 12.8661 9.84577L18.8535 20.4634C19.5979 21.7811 20.5794 22.8551 21.7167 23.5965C22.854 24.3379 24.1144 24.7254 25.3934 24.7268H27.0797L25.5943 22.8469C25.3789 22.574 25.2579 22.2038 25.2579 21.8179C25.2579 21.4319 25.3789 21.0618 25.5943 20.7888C25.8098 20.5159 26.102 20.3626 26.4066 20.3626C26.7113 20.3626 27.0035 20.5159 27.2189 20.7888L30.6633 25.1523ZM17.0782 12.182C17.2009 12.293 17.3396 12.3724 17.4865 12.4154C17.6334 12.4585 17.7856 12.4646 17.9343 12.4332C18.083 12.4018 18.2254 12.3335 18.3533 12.2324C18.4812 12.1313 18.5922 11.9993 18.6798 11.8438L18.852 11.5402C19.5963 10.2216 20.5779 9.14678 21.7155 8.40471C22.8531 7.66264 24.1139 7.27474 25.3934 7.27317H27.0797L25.5943 9.15307C25.3789 9.42599 25.2579 9.79615 25.2579 10.1821C25.2579 10.5681 25.3789 10.9382 25.5943 11.2112C25.8098 11.4841 26.102 11.6374 26.4066 11.6374C26.7113 11.6374 27.0035 11.4841 27.2189 11.2112L30.6633 6.84774C30.77 6.71265 30.8547 6.55224 30.9125 6.37567C30.9703 6.1991 31 6.00984 31 5.8187C31 5.62756 30.9703 5.43829 30.9125 5.26172C30.8547 5.08515 30.77 4.92474 30.6633 4.78966L27.2189 0.426242C27.0035 0.153324 26.7113 -7.60828e-09 26.4066 0C26.102 7.60828e-09 25.8098 0.153324 25.5943 0.426242C25.3789 0.69916 25.2579 1.06932 25.2579 1.45528C25.2579 1.84124 25.3789 2.2114 25.5943 2.48432L27.0797 4.36422H25.3934C23.7489 4.36596 22.1284 4.86408 20.6661 5.81734C19.2039 6.7706 17.9419 8.15154 16.9849 9.84577L16.8127 10.1494C16.7245 10.3048 16.6615 10.4808 16.6271 10.6672C16.5927 10.8535 16.5877 11.0467 16.6124 11.2355C16.6371 11.4244 16.6909 11.6052 16.7708 11.7676C16.8508 11.93 16.9552 12.0708 17.0782 12.182ZM12.7728 19.818C12.6501 19.707 12.5113 19.6276 12.3644 19.5845C12.2176 19.5415 12.0654 19.5354 11.9167 19.5668C11.768 19.5982 11.6256 19.6664 11.4977 19.7676C11.3697 19.8687 11.2588 20.0007 11.1712 20.1562L10.9989 20.4598C10.2547 21.7783 9.27311 22.8532 8.13552 23.5953C6.99793 24.3374 5.7371 24.7253 4.45756 24.7268H1.14811C0.843616 24.7268 0.551588 24.8801 0.336275 25.1528C0.120962 25.4256 0 25.7956 0 26.1813C0 26.5671 0.120962 26.937 0.336275 27.2098C0.551588 27.4825 0.843616 27.6358 1.14811 27.6358H4.45756C6.10207 27.634 7.72259 27.1359 9.18486 26.1827C10.6471 25.2294 11.909 23.8485 12.8661 22.1542L13.0383 21.8506C13.1264 21.6952 13.1895 21.5192 13.2239 21.3328C13.2583 21.1465 13.2633 20.9533 13.2386 20.7645C13.2139 20.5756 13.1601 20.3948 13.0801 20.2324C13.0002 20.07 12.8958 19.9292 12.7728 19.818Z" fill="white"/>
</svg>
